<svg xmlns="http://www.w3.org/2000/svg" width="150" height="28" fill="none" viewBox="0 0 150 28"><path fill="#E9A2B8" fill-rule="evenodd" d="M10.3014 7.03893L5.97599 2.70521C5.11458 1.84129 3.77586 1.75214 2.81348 2.43209C6.16733 -0.614601 11.3704 -0.517667 14.6063 2.72502L16.3511 4.47337L13.7908 7.03893C12.827 8.00473 11.2645 8.00473 10.3014 7.03893" clip-rule="evenodd"/><mask id="mask0_5949_58144" width="33" height="26" x="0" y="1" maskUnits="userSpaceOnUse" style="mask-type:alpha"><path fill="#fff" fill-rule="evenodd" d="M0 1.98193H32.7023V26.6495H0V1.98193Z" clip-rule="evenodd"/></mask><g mask="url(#mask0_5949_58144)"><path fill="#F281A1" fill-rule="evenodd" d="M30.4859 3.03023C31.1659 3.99533 31.0769 5.33825 30.2155 6.20146L25.8915 10.5345C25.8908 10.5345 25.8908 10.5352 25.8901 10.5359L16.3503 20.0955L6.81053 10.5359C6.80982 10.5345 6.80912 10.5338 6.80841 10.5331C6.34382 10.0668 6.08751 9.44697 6.08751 8.78754C6.08751 8.12669 6.34452 7.50617 6.81053 7.03919C7.77291 6.07481 9.33757 6.07481 10.3007 7.03919L5.97524 2.70476C5.11383 1.84156 3.77511 1.75241 2.81203 2.43236C2.70823 2.52717 2.60585 2.6241 2.50559 2.72457C2.40603 2.82363 2.3093 2.92623 2.2161 3.02953C0.783473 4.60877 -0.000976562 6.63801 -0.000976562 8.78754C-0.000976562 11.0779 0.889384 13.2309 2.50559 14.8498L10.3014 22.6618L12.8199 25.1863C13.7929 26.1613 15.0716 26.6488 16.3503 26.6495C17.629 26.6495 18.907 26.162 19.8807 25.1863L30.195 14.8498C31.8112 13.2309 32.7016 11.0779 32.7016 8.78754C32.7016 6.63872 31.9179 4.61019 30.4859 3.03023" clip-rule="evenodd"/></g><path fill="#E9A2B8" fill-rule="evenodd" d="M30.2162 6.202L25.8922 10.535C26.3575 10.068 26.6138 9.44751 26.6138 8.78737C26.6138 8.12723 26.3568 7.506 25.8915 7.03902C25.41 6.55718 24.778 6.31591 24.1461 6.31591C23.5141 6.31591 22.8822 6.55718 22.4014 7.03902L26.7268 2.7053C27.5875 1.8421 28.9255 1.75224 29.8886 2.43148C29.9931 2.52629 30.0955 2.62393 30.1964 2.72511C30.296 2.82488 30.3927 2.92676 30.4866 3.03077C31.1666 3.99587 31.0783 5.33808 30.2162 6.202" clip-rule="evenodd"/><path fill="#F281A1" fill-rule="evenodd" d="M26.7265 2.70468L22.4018 7.0384L19.8818 9.56363C17.9351 11.5143 14.7677 11.5143 12.821 9.56363L10.3018 7.0384C11.2648 8.0042 12.8274 8.0042 13.7912 7.0384L16.3514 4.47354L18.0961 2.72449C21.3314 -0.517489 26.5344 -0.614422 29.8883 2.43156C28.9252 1.75232 27.5879 1.84147 26.7265 2.70468" clip-rule="evenodd"/><path fill="#fff" fill-rule="evenodd" d="M38.7283 18.8593C37.7073 18.2664 36.9398 17.4626 36.4251 16.448C35.9103 15.4334 35.6533 14.307 35.6533 13.0688C35.6533 11.8143 35.9103 10.6751 36.4251 9.65204C36.9398 8.62892 37.7122 7.82091 38.7417 7.22798C39.7712 6.63435 41.023 6.33789 42.4987 6.33789C43.8198 6.33789 44.9693 6.61313 45.9479 7.16289L45.6902 9.74189C44.7638 9.26147 43.8028 9.0202 42.808 9.0202C41.5893 9.0202 40.6368 9.39024 39.9505 10.1289C39.2642 10.8683 38.921 11.8483 38.921 13.0688C38.921 14.2384 39.2727 15.2056 39.9766 15.9704C40.6799 16.736 41.6147 17.1181 42.7819 17.1181C43.7598 17.1181 44.7384 16.8343 45.7156 16.2669L45.9987 18.9754C45.5355 19.2159 44.9912 19.4049 44.3649 19.5428C43.7386 19.6801 43.0819 19.7487 42.3956 19.7487C40.9715 19.7487 39.7493 19.4523 38.7283 18.8593" clip-rule="evenodd"/><path fill="#fff" fill-rule="evenodd" d="M58.2493 7.98821C59.0733 9.05449 59.4849 10.4901 59.4849 12.295V19.4908H56.2935V12.5533C56.2935 11.3498 56.0915 10.4604 55.6884 9.88373C55.2852 9.30779 54.6377 9.01982 53.7452 9.01982C52.7673 9.01982 51.961 9.38986 51.3262 10.1285V19.4908H48.1348V6.59576H51.1201L51.1716 7.49859C52.2526 6.75921 53.4021 6.38916 54.6208 6.38916C56.2165 6.38916 57.426 6.92265 58.2493 7.98821" clip-rule="evenodd"/><path fill="#fff" fill-rule="evenodd" d="M60.5654 6.5957H63.7053L66.8714 15.5193L70.0367 6.5957H73.1767L68.2355 19.4914H65.5073L60.5654 6.5957Z" clip-rule="evenodd"/><path fill="#fff" fill-rule="evenodd" d="M75.5701 18.8074C75.0208 18.1798 74.7461 17.3675 74.7461 16.3706V0.147949H77.9383V15.0552C77.9383 15.7423 77.9764 16.2283 78.0541 16.5121C78.131 16.7958 78.268 16.9677 78.4657 17.0279C78.6627 17.088 79.0016 17.1177 79.4824 17.1177L79.1993 19.7491H78.0413C76.9427 19.7491 76.1187 19.4349 75.5701 18.8074" clip-rule="evenodd"/><path fill="#fff" fill-rule="evenodd" d="M89.6864 16.009C90.2781 15.2703 90.5739 14.2904 90.5739 13.0691C90.5739 11.8309 90.2781 10.8382 89.6864 10.0904C89.0947 9.3425 88.2749 8.9682 87.2285 8.9682C86.1821 8.9682 85.3624 9.3425 84.7707 10.0904C84.179 10.8382 83.8824 11.8309 83.8824 13.0691C83.8824 14.2904 84.179 15.2703 84.7707 16.009C85.3624 16.7484 86.1821 17.1177 87.2285 17.1177C88.2749 17.1177 89.0947 16.7484 89.6864 16.009M83.7026 18.8461C82.7078 18.2447 81.9438 17.4367 81.4121 16.4214C80.8797 15.4074 80.6143 14.2902 80.6143 13.069C80.6143 11.8485 80.8797 10.7221 81.4121 9.69046C81.9438 8.65886 82.7078 7.84235 83.7026 7.24023C84.6975 6.63811 85.8731 6.3374 87.2288 6.3374C88.5837 6.3374 89.7593 6.63811 90.7549 7.24023C91.7498 7.84235 92.513 8.65886 93.0454 9.69046C93.5771 10.7221 93.8433 11.8485 93.8433 13.069C93.8433 14.2902 93.5771 15.4074 93.0454 16.4214C92.513 17.4367 91.7498 18.2447 90.7549 18.8461C89.7593 19.4482 88.5837 19.7489 87.2288 19.7489C85.8731 19.7489 84.6975 19.4482 83.7026 18.8461" clip-rule="evenodd"/><path fill="#fff" fill-rule="evenodd" d="M99.6337 18.6396L94.2803 6.5957H97.8318L101.126 14.8995L104.472 6.5957H108.024L99.9684 25.732H96.777L99.6337 18.6396Z" clip-rule="evenodd"/><path fill="#fff" fill-rule="evenodd" d="M114.638 17.0538C115.05 16.8904 115.41 16.6625 115.719 16.3703V13.4298C114.69 13.4821 113.78 13.7057 112.991 14.1005C112.202 14.4967 111.807 15.0465 111.807 15.7512C111.807 16.2847 111.945 16.676 112.219 16.925C112.493 17.1741 112.931 17.2986 113.532 17.2986C113.857 17.2986 114.227 17.2173 114.638 17.0538M109.529 18.7045C108.818 18.0083 108.461 17.0665 108.461 15.88C108.461 14.7627 108.864 13.8649 109.671 13.1849C110.477 12.5064 111.43 12.0245 112.528 11.7408C113.625 11.4571 114.681 11.2986 115.693 11.2639C115.659 10.5076 115.466 9.96559 115.114 9.63941C114.763 9.31252 114.183 9.14908 113.377 9.14908C112.811 9.14908 112.258 9.2262 111.717 9.38115C111.177 9.53611 110.554 9.78516 109.851 10.129L109.568 7.52384C111.129 6.76748 112.691 6.38965 114.252 6.38965C115.762 6.38965 116.916 6.80215 117.713 7.62715C118.512 8.45285 118.911 9.76818 118.911 11.5731V15.055C118.911 15.7087 118.941 16.1771 119.001 16.4609C119.061 16.7446 119.164 16.925 119.309 17.0021C119.455 17.0793 119.7 17.1182 120.043 17.1182H120.455L120.172 19.7488H119.013C118.31 19.7488 117.718 19.6158 117.237 19.3491C116.757 19.083 116.389 18.7172 116.131 18.2531C115.719 18.7172 115.157 19.083 114.445 19.3491C113.733 19.6158 112.982 19.7488 112.193 19.7488C111.129 19.7488 110.241 19.4007 109.529 18.7045" clip-rule="evenodd"/><path fill="#fff" fill-rule="evenodd" d="M123.054 18.8074C122.504 18.1798 122.23 17.3675 122.23 16.3706V0.147949H125.422V15.0552C125.422 15.7423 125.461 16.2283 125.538 16.5121C125.615 16.7958 125.752 16.9677 125.949 17.0279C126.146 17.088 126.485 17.1177 126.966 17.1177L126.683 19.7491H125.525C124.426 19.7491 123.603 19.4349 123.054 18.8074" clip-rule="evenodd"/><path fill="#fff" fill-rule="evenodd" d="M130.492 18.7559C129.909 18.0943 129.617 17.2983 129.617 16.37V9.22593H127.79L128.073 6.59527H129.617V3.75872L132.809 3.42334V6.59527H135.64V9.22593H132.809V15.0554C132.809 15.7424 132.847 16.22 132.925 16.4861C133.002 16.7528 133.165 16.9247 133.414 17.0019C133.662 17.079 134.112 17.1179 134.765 17.1179H135.64L135.357 19.7486H133.067C131.934 19.7486 131.075 19.4181 130.492 18.7559" clip-rule="evenodd"/><mask id="mask1_5949_58144" width="14" height="20" x="136" y="6" maskUnits="userSpaceOnUse" style="mask-type:alpha"><path fill="#fff" fill-rule="evenodd" d="M136.256 6.59619H149.999V25.7325H136.256V6.59619Z" clip-rule="evenodd"/></mask><g mask="url(#mask1_5949_58144)"><path fill="#fff" fill-rule="evenodd" d="M141.609 18.64L136.256 6.59619H139.808L143.102 14.9L146.448 6.59619H150L141.944 25.7325H138.753L141.609 18.64Z" clip-rule="evenodd"/></g><path fill="#fff" fill-rule="evenodd" d="M36.9515 23.3722L36.9699 23.3757L38.4809 21.1392H39.1615L37.1104 24.0762L36.7898 25.6738H36.1932L36.5194 24.0351L35.6523 21.1392H36.3358L36.9515 23.3722Z" clip-rule="evenodd"/><path fill="#fff" fill-rule="evenodd" d="M39.3669 24.0247C39.3069 24.3955 39.3253 24.694 39.4213 24.919C39.5173 25.144 39.7016 25.2565 39.9727 25.2565C40.2262 25.2565 40.4416 25.1391 40.6195 24.9035C40.7974 24.6679 40.9146 24.3749 40.9704 24.0247L40.9803 23.9561C41.0382 23.591 41.0184 23.2945 40.921 23.0667C40.8236 22.8381 40.6414 22.7242 40.3738 22.7242C40.1189 22.7242 39.9035 22.8424 39.7263 23.0794C39.5491 23.3157 39.4326 23.608 39.3761 23.9561L39.3669 24.0247ZM38.7767 23.9575C38.8594 23.4389 39.0493 23.0228 39.3472 22.7108C39.6445 22.3981 40.0117 22.2417 40.4487 22.2417C40.8674 22.2417 41.1802 22.4037 41.3885 22.7292C41.5975 23.054 41.6618 23.4636 41.5834 23.9575L41.5735 24.0261C41.4888 24.5476 41.2974 24.9636 41.0002 25.2735C40.7029 25.5841 40.3358 25.7391 39.8987 25.7391C39.48 25.7391 39.1665 25.5771 38.9582 25.2537C38.7499 24.9297 38.6864 24.5207 38.7676 24.0261L38.7767 23.9575Z" clip-rule="evenodd"/><path fill="#fff" fill-rule="evenodd" d="M44.0041 25.6738L44.0571 25.2124C43.9243 25.3851 43.7732 25.516 43.6045 25.6051C43.4357 25.6943 43.2508 25.7388 43.0495 25.7388C42.729 25.7388 42.491 25.6193 42.3364 25.3808C42.1818 25.1424 42.1535 24.7787 42.251 24.2905L42.6456 22.3037H43.2458L42.8476 24.2969C42.7713 24.6789 42.7671 24.9315 42.8356 25.0554C42.9034 25.1792 43.0418 25.2407 43.2486 25.2407C43.4329 25.2407 43.6003 25.1947 43.7507 25.1035C43.901 25.0122 44.0281 24.8855 44.1312 24.7235L44.6135 22.3037H45.2129L44.5415 25.6738H44.0041Z" clip-rule="evenodd"/><path fill="#fff" fill-rule="evenodd" d="M47.4793 22.8455L47.1503 22.8271C47.0133 22.8271 46.8876 22.8653 46.7725 22.9438C46.6574 23.0216 46.5572 23.1306 46.4724 23.2721L45.9937 25.6735H45.3936L46.0657 22.3035H46.6031L46.5656 22.7549C46.6814 22.5914 46.8128 22.4641 46.9589 22.3749C47.1051 22.2858 47.2618 22.2412 47.4299 22.2412C47.4708 22.2412 47.516 22.2447 47.5647 22.2518C47.6135 22.2596 47.6495 22.2674 47.6721 22.2752L47.4793 22.8455Z" clip-rule="evenodd"/><path fill="#fff" fill-rule="evenodd" d="M51.4082 24.1118C51.4873 23.7099 51.4753 23.3802 51.3722 23.1241C51.2698 22.8679 51.0827 22.7399 50.8116 22.7399C50.6725 22.7399 50.544 22.7809 50.426 22.8616C50.3081 22.9422 50.2015 23.0533 50.1062 23.1941L49.7765 24.8399C49.8308 24.97 49.9113 25.0726 50.0186 25.1462C50.1267 25.2198 50.2644 25.2566 50.4324 25.2566C50.6788 25.2566 50.8836 25.1597 51.0481 24.9658C51.2112 24.7719 51.3277 24.5087 51.3955 24.1769L51.4082 24.1118ZM51.9955 24.179C51.8917 24.6983 51.7173 25.0875 51.4716 25.3485C51.2266 25.6089 50.9096 25.7391 50.5226 25.7391C50.3419 25.7391 50.1802 25.7051 50.0361 25.6365C49.8921 25.5679 49.7735 25.4681 49.6803 25.3372L49.3534 26.9695H48.7539L49.6831 22.304H50.1992L50.1774 22.6372C50.3016 22.5084 50.4407 22.4101 50.5954 22.3429C50.7493 22.2757 50.9159 22.2417 51.0945 22.2417C51.4568 22.2417 51.7258 22.4214 51.9009 22.7808C52.076 23.1396 52.1113 23.5839 52.0082 24.1132L51.9955 24.179Z" clip-rule="evenodd"/><path fill="#fff" fill-rule="evenodd" d="M53.5368 25.2254C53.7048 25.2254 53.8757 25.1766 54.0501 25.0789C54.2238 24.9813 54.3586 24.866 54.454 24.7337L54.5782 24.1139H53.9844C53.7797 24.1139 53.5954 24.1768 53.4316 24.3035C53.2678 24.4301 53.1696 24.5759 53.1392 24.7393C53.1061 24.8999 53.1216 25.0202 53.1858 25.1023C53.2501 25.1844 53.3673 25.2254 53.5368 25.2254V25.2254ZM54.3323 25.674C54.3323 25.5721 54.3345 25.4886 54.3387 25.4235C54.3429 25.3577 54.35 25.2912 54.3606 25.2226C54.2215 25.3698 54.0626 25.4929 53.8833 25.5912C53.7039 25.6903 53.5239 25.7391 53.3438 25.7391C53.0374 25.7391 52.8107 25.6478 52.6653 25.4639C52.5191 25.2799 52.4775 25.0344 52.5424 24.7273C52.6088 24.3849 52.7769 24.1273 53.0473 23.9568C53.3177 23.7849 53.6644 23.6992 54.0866 23.6992H54.6621L54.727 23.366C54.7687 23.1566 54.7454 22.9974 54.6585 22.8884C54.5717 22.7787 54.427 22.7242 54.2236 22.7242C54.0499 22.7242 53.8917 22.7759 53.7512 22.8785C53.61 22.9818 53.526 23.1014 53.4992 23.2386H52.9308L52.9244 23.2202C52.9654 22.9599 53.1214 22.7327 53.3904 22.536C53.6602 22.34 53.9807 22.2417 54.3542 22.2417C54.6875 22.2417 54.9509 22.3408 55.145 22.5396C55.3385 22.7377 55.4006 23.015 55.33 23.3724L55.0066 24.9948C54.9798 25.1221 54.9615 25.2389 54.9509 25.3471C54.9403 25.4547 54.9403 25.5643 54.9509 25.674H54.3323Z" clip-rule="evenodd"/><path fill="#fff" fill-rule="evenodd" d="M57.7977 22.8455L57.4679 22.8271C57.3309 22.8271 57.2053 22.8653 57.0909 22.9438C56.9751 23.0216 56.8755 23.1306 56.7908 23.2721L56.3121 25.6735H55.7119L56.3834 22.3035H56.9207L56.884 22.7549C56.9998 22.5914 57.1311 22.4641 57.2773 22.3749C57.4227 22.2858 57.5802 22.2412 57.7482 22.2412C57.7892 22.2412 57.8344 22.2447 57.8831 22.2518C57.9318 22.2596 57.9671 22.2674 57.9904 22.2752L57.7977 22.8455Z" clip-rule="evenodd"/><path fill="#fff" fill-rule="evenodd" d="M59.5528 21.4907L59.3883 22.3037H59.9694L59.879 22.7586H59.2979L58.8912 24.8049C58.8559 24.9726 58.8609 25.0865 58.906 25.1459C58.9519 25.2053 59.0254 25.2351 59.127 25.2351C59.1744 25.2351 59.2322 25.2301 59.2993 25.2202C59.3671 25.211 59.4208 25.2011 59.4596 25.1905L59.4568 25.6115C59.3968 25.6483 59.3113 25.6794 59.1998 25.7035C59.0889 25.7268 58.9795 25.7388 58.8722 25.7388C58.6547 25.7388 58.4873 25.6624 58.3701 25.5082C58.2536 25.3546 58.2268 25.1204 58.2911 24.8049L58.6985 22.7586H58.207L58.2974 22.3037H58.7881L58.9526 21.4907H59.5528Z" clip-rule="evenodd"/><path fill="#fff" fill-rule="evenodd" d="M61.2034 22.7681C61.3404 22.5976 61.495 22.4674 61.668 22.3768C61.841 22.287 62.0274 22.2417 62.2258 22.2417C62.5429 22.2417 62.778 22.3492 62.9312 22.5658C63.0851 22.7816 63.1176 23.1084 63.0308 23.5464L62.605 25.674H62.0055L62.4278 23.5592C62.4899 23.2436 62.4821 23.0278 62.4031 22.9132C62.324 22.7978 62.1715 22.7398 61.9434 22.7398C61.7979 22.7398 61.6539 22.7837 61.5113 22.8721C61.3679 22.9606 61.243 23.078 61.1349 23.2259L60.647 25.674H60.0469L60.7184 22.304H61.2564L61.2034 22.7681Z" clip-rule="evenodd"/><path fill="#fff" fill-rule="evenodd" d="M65.1944 22.7242C65.02 22.7242 64.8519 22.812 64.6895 22.986C64.5271 23.1601 64.4099 23.3766 64.34 23.6334L64.3492 23.6525H65.7324L65.7444 23.5712C65.7839 23.32 65.7599 23.1162 65.6731 22.9598C65.5862 22.8028 65.4267 22.7242 65.1944 22.7242M64.8058 25.7391C64.3828 25.7391 64.063 25.582 63.8469 25.2672C63.6302 24.9523 63.561 24.5483 63.64 24.0537L63.6619 23.9172C63.7403 23.4191 63.9366 23.015 64.2508 22.7058C64.565 22.3967 64.9039 22.2417 65.269 22.2417C65.6806 22.2417 65.9764 22.3797 66.1544 22.6563C66.333 22.933 66.3867 23.2981 66.3161 23.7516L66.2539 24.1351H64.2275C64.1816 24.4783 64.2134 24.7507 64.3228 24.953C64.4308 25.1554 64.6173 25.2566 64.8806 25.2566C65.0621 25.2566 65.2337 25.2261 65.3932 25.1653C65.5528 25.1044 65.6912 25.0238 65.8098 24.9247L65.9807 25.3245C65.8543 25.4426 65.6926 25.5417 65.4956 25.6202C65.2986 25.7002 65.0684 25.7391 64.8058 25.7391" clip-rule="evenodd"/><path fill="#fff" fill-rule="evenodd" d="M68.7127 22.8455L68.3837 22.8271C68.2467 22.8271 68.121 22.8653 68.0059 22.9438C67.8908 23.0216 67.7906 23.1306 67.7058 23.2721L67.2271 25.6735H66.627L67.2984 22.3035H67.8365L67.799 22.7549C67.9148 22.5914 68.0462 22.4641 68.1923 22.3749C68.3385 22.2858 68.4952 22.2412 68.6633 22.2412C68.7042 22.2412 68.7494 22.2447 68.7981 22.2518C68.8469 22.2596 68.8829 22.2674 68.9055 22.2752L68.7127 22.8455Z" clip-rule="evenodd"/><path fill="#fff" fill-rule="evenodd" d="M71.7365 21.441H71.1363L71.2613 20.8149H71.8608L71.7365 21.441ZM70.8912 25.6735H70.2918L70.9626 22.3035H71.5627L70.8912 25.6735Z" clip-rule="evenodd"/><path fill="#fff" fill-rule="evenodd" d="M72.943 22.7681C73.0799 22.5976 73.2346 22.4674 73.4076 22.3768C73.5805 22.287 73.7669 22.2417 73.9654 22.2417C74.2824 22.2417 74.5175 22.3492 74.6714 22.5658C74.8246 22.7816 74.8571 23.1084 74.7703 23.5464L74.3445 25.674H73.7451L74.1673 23.5592C74.2301 23.2436 74.2217 23.0278 74.1426 22.9132C74.0642 22.7978 73.911 22.7398 73.6829 22.7398C73.5375 22.7398 73.3934 22.7837 73.2508 22.8721C73.1075 22.9606 72.9825 23.078 72.8745 23.2259L72.3866 25.674H71.7871L72.4579 22.304H72.9959L72.943 22.7681Z" clip-rule="evenodd"/><mask id="mask2_5949_58144" width="4" height="6" x="76" y="22" maskUnits="userSpaceOnUse" style="mask-type:alpha"><path fill="#fff" fill-rule="evenodd" d="M76.7158 22.2412H79.932V27.0347H76.7158V22.2412Z" clip-rule="evenodd"/></mask><g mask="url(#mask2_5949_58144)"><path fill="#fff" fill-rule="evenodd" d="M77.5016 24.054C77.4289 24.4092 77.4445 24.6958 77.5482 24.9137C77.652 25.1316 77.8406 25.2406 78.1138 25.2406C78.2614 25.2406 78.3941 25.1988 78.5134 25.1146C78.6328 25.0304 78.7415 24.9109 78.8411 24.7552L79.1553 23.1852C79.0995 23.0507 79.0162 22.9425 78.9067 22.8611C78.7966 22.7804 78.661 22.7401 78.4993 22.7401C78.2508 22.7401 78.0432 22.8533 77.8766 23.0812C77.7092 23.3083 77.5885 23.6111 77.5144 23.9889L77.5016 24.054ZM76.9142 23.9889C77.0286 23.4115 77.2129 22.9764 77.4692 22.6827C77.7248 22.3884 78.051 22.2412 78.4464 22.2412C78.6314 22.2412 78.7959 22.2822 78.9407 22.3629C79.0861 22.4443 79.2026 22.5596 79.2923 22.7089L79.4222 22.3035H79.932L79.2704 25.6304C79.1772 26.0952 78.9901 26.4455 78.7091 26.6811C78.4281 26.9167 78.0644 27.0348 77.6168 27.0348C77.4756 27.0348 77.3188 27.0122 77.1458 26.9662C76.9728 26.9202 76.8295 26.8601 76.7158 26.7858L76.9608 26.3089C77.0456 26.3712 77.1578 26.4214 77.2962 26.4603C77.4353 26.4985 77.5744 26.5176 77.7128 26.5176C77.9642 26.5176 78.1717 26.4391 78.3363 26.2827C78.5015 26.1256 78.6116 25.9084 78.6674 25.6304L78.714 25.3997C78.5954 25.5122 78.4655 25.5964 78.3221 25.6537C78.1795 25.7103 78.0263 25.7386 77.8625 25.7386C77.5017 25.7386 77.2277 25.5766 77.0399 25.2518C76.8528 24.9264 76.8069 24.5273 76.9015 24.0539L76.9142 23.9889Z" clip-rule="evenodd"/></g><path fill="#fff" fill-rule="evenodd" d="M82.1886 22.8455L81.8595 22.8271C81.7226 22.8271 81.5969 22.8653 81.4818 22.9438C81.3667 23.0216 81.2664 23.1306 81.1817 23.2721L80.703 25.6735H80.1035L80.775 22.3035H81.3123L81.2749 22.7549C81.3914 22.5914 81.522 22.4641 81.6682 22.3749C81.8143 22.2858 81.9711 22.2412 82.1391 22.2412C82.1808 22.2412 82.2253 22.2447 82.274 22.2518C82.3227 22.2596 82.3587 22.2674 82.3813 22.2752L82.1886 22.8455Z" clip-rule="evenodd"/><path fill="#fff" fill-rule="evenodd" d="M82.9378 24.0245C82.8777 24.3952 82.8961 24.6938 82.9921 24.9188C83.0889 25.1438 83.2724 25.2563 83.5436 25.2563C83.7963 25.2563 84.0117 25.1388 84.1903 24.9032C84.3683 24.6676 84.4855 24.3747 84.5413 24.0245L84.5511 23.9558C84.609 23.5907 84.5893 23.2943 84.4918 23.0664C84.3944 22.8379 84.2122 22.724 83.9446 22.724C83.6897 22.724 83.4737 22.8421 83.2971 23.0792C83.1199 23.3155 83.0027 23.6077 82.9469 23.9558L82.9378 24.0245ZM82.3473 23.957C82.4299 23.4384 82.6199 23.0223 82.9171 22.7103C83.2151 22.3976 83.5822 22.2412 84.0193 22.2412C84.438 22.2412 84.7508 22.4032 84.9598 22.7287C85.1674 23.0535 85.2323 23.4631 85.154 23.957L85.1441 24.0256C85.0594 24.5471 84.868 24.9631 84.5708 25.273C84.2735 25.5837 83.9063 25.7386 83.4693 25.7386C83.0506 25.7386 82.7371 25.5766 82.5288 25.2532C82.3205 24.9292 82.2569 24.5202 82.3374 24.0256L82.3473 23.957Z" clip-rule="evenodd"/><path fill="#fff" fill-rule="evenodd" d="M86.6205 24.4464L86.6078 24.8044L86.6268 24.8108L86.7695 24.4464L87.8138 22.3032H88.2925L88.4888 24.4464L88.4852 24.8631L88.5036 24.8667L88.6653 24.4464L89.5698 22.3032H90.1664L88.5876 25.6733H88.1061L87.926 23.6207L87.907 23.073L87.8886 23.0695L87.6556 23.6207L86.6607 25.6733H86.1792L85.9434 22.3032H86.5393L86.6205 24.4464Z" clip-rule="evenodd"/><path fill="#fff" fill-rule="evenodd" d="M91.7022 21.4907L91.5377 22.3037H92.1188L92.0284 22.7586H91.4473L91.0406 24.8049C91.0053 24.9726 91.0103 25.0865 91.0555 25.1459C91.1014 25.2053 91.1748 25.2351 91.2765 25.2351C91.3238 25.2351 91.3817 25.2301 91.4494 25.2202C91.5165 25.211 91.5695 25.2011 91.609 25.1905L91.6062 25.6115C91.5455 25.6483 91.4607 25.6794 91.3492 25.7035C91.239 25.7268 91.1289 25.7388 91.0216 25.7388C90.8041 25.7388 90.6368 25.6624 90.5195 25.5082C90.4023 25.3546 90.3762 25.1204 90.4405 24.8049L90.8479 22.7586H90.3564L90.4468 22.3037H90.9375L91.1021 21.4907H91.7022Z" clip-rule="evenodd"/><path fill="#fff" fill-rule="evenodd" d="M93.3867 22.7119C93.5258 22.5605 93.6798 22.4444 93.8485 22.3631C94.0173 22.2824 94.1959 22.2414 94.3844 22.2414C94.6993 22.2414 94.9337 22.3517 95.087 22.5718C95.2402 22.7918 95.2734 23.1222 95.1865 23.5623L94.7636 25.6744H94.1641L94.5864 23.556C94.645 23.2609 94.633 23.0515 94.5525 22.927C94.472 22.8024 94.3202 22.7402 94.0985 22.7402C93.9601 22.7402 93.8188 22.7812 93.6762 22.8633C93.5329 22.9454 93.4044 23.0543 93.2907 23.1916L92.7965 25.6744H92.1963L93.1664 20.8149H93.7659L93.3867 22.7119Z" clip-rule="evenodd"/></svg>